# xmcd
#
# Track frame offsets:
#	150
#	19952
#	42187
#	64560
#	83415
#	103960
#	121322
#	142797
#	162212
#	183272
#	205777
#	227452
#	250005
#	270880
#	290597
#	310655
#
# Disc length: 4366 seconds
#
# Revision: 2
# Processed by: cddbd v1.5.2PL0 Copyright (c) Steve Scherf et al.
# Submitted via: EasyCDDAExtractor 15.2.5.1
#
DISCID=c6110c10
DTITLE=寶麗金 - 十大國語金曲盡精英 (1)
DYEAR=1980
DGENRE=Alternative
TTITLE0=遲來的愛
TTITLE1=水手
TTITLE2=特別的愛給將别的你
TTITLE3=你知到我再等你嗎
TTITLE4=耶利亞女郎
TTITLE5=大約在冬季
TTITLE6=我終于失去了你
TTITLE7=明天你是否依然愛我
TTITLE8=我曾用你愛著你
TTITLE9=愛上一個不回家的人
TTITLE10=我用自己的方式愛你
TTITLE11=叫你一聲 My Love
TTITLE12=你看你看月亮的臉
TTITLE13=讓生命等候
TTITLE14=是否我真的一無所有
TTITLE15=橄欖樹
EXTD=
EXTT0=
EXTT1=
EXTT2=
EXTT3=
EXTT4=
EXTT5=
EXTT6=
EXTT7=
EXTT8=
EXTT9=
EXTT10=
EXTT11=
EXTT12=
EXTT13=
EXTT14=
EXTT15=
PLAYORDER=
